<svg version="1.2" xmlns="http://www.w3.org/2000/svg" viewBox="0 0 512 768" width="512" height="768"><style>tspan{white-space:pre}.a{fill:#3f68b1}.b{fill:none;stroke:#2f00ff;paint-order:stroke fill markers;stroke-linecap:square;stroke-miterlimit:100;stroke-width:24}.c{font-size: 82px;fill: #000000;font-weight: 600;font-family: "Poppins-SemiBold", "Poppins"}.d{font-size: 20px;line-height: 42px;fill: #000000;font-weight: 600;font-family: "Poppins-SemiBold", "Poppins"}</style><path fill-rule="evenodd" class="a" d="m50 0h412c27.6 0 50 22.4 50 50v668c0 27.6-22.4 50-50 50h-412c-27.6 0-50-22.4-50-50v-668c0-27.6 22.4-50 50-50z"/><filter id="f0"><feFlood flood-color="#ffffff" flood-opacity="1" /><feBlend mode="normal" in2="SourceGraphic"/><feComposite in2="SourceAlpha" operator="in" /></filter><g filter="url(#f0)"><path fill-rule="evenodd" class="b" d="m50 32h412c9.9 0 18 8.1 18 18v668c0 9.9-8.1 18-18 18h-412c-9.9 0-18-8.1-18-18v-668c0-9.9 8.1-18 18-18z"/><text style="transform:matrix(2.434,0,0,2.434,256,384)" ><tspan x="-11.4" y="0" class="c">I</tspan><tspan  y="0" class="c">
</tspan><tspan x="-32.4" y="41.9" class="d">Iodine</tspan><tspan  y="41.9" class="d">
</tspan></text></g></svg>